<svg xmlns="http://www.w3.org/2000/svg" viewBox="0 0 140.45 93.5"><defs><style>.cls-1{fill:#fff;}</style></defs><g id="Capa_2" data-name="Capa 2"><g id="Capa_1-2" data-name="Capa 1"><path class="cls-1" d="M78.24,93.5,77,92.72,1,41.33c-.72-.48-1.31-.94-.87-2,.13,0,.32,0,.41.13,1.27,1.28,2.45.94,3.91.13C11.2,35.87,18,32.22,24.77,28.54c.38-.21.75-.44,1.26-.74-.94-.59-1.75-1.15-2.61-1.63A.88.88,0,0,1,23,24.83q1.41-3.3,2.71-6.65a4,4,0,0,1,2.16-2.28Q44.65,8,61.47.15A2.35,2.35,0,0,1,63,.11c1,.29,1.84.78,2.79,1.08a1.6,1.6,0,0,1,1.26,1.63,32.81,32.81,0,0,0,.43,3.57,1.54,1.54,0,0,1-1,1.88Q48,18.41,29.45,28.65c-.66.36-1.24.66-1.95.06a1,1,0,0,0-1,0Q15.07,34.91,3.61,41.19s0,.06-.13.2l3.37,2.22c2.44,1.61,4.86,3.24,7.33,4.78a1.7,1.7,0,0,0,1.47.09q11.1-6.45,22.13-13a3.13,3.13,0,0,0,.42-.34l-1.09-.83c1.5-3,2.94-6,4.52-8.95a4.48,4.48,0,0,1,1.89-1.59Q59.78,15.44,76.07,7.15a1.82,1.82,0,0,1,2,0,6.18,6.18,0,0,0,.86.41c3,1.37,2.81,1.4,3.3,4.68.35,2.31-.42,3.38-2.39,4.51C68,23.5,56.3,30.43,44.56,37.35c-.86.51-1.56.72-2.35,0-1.92-1.71-3.64-1.38-5.78,0C30.06,41.3,23.51,45,17,48.82c-.34.2-.66.42-1.14.72l1.85,1.24c3.14,2.07,6.3,4.09,9.41,6.22a1.7,1.7,0,0,0,2.2,0Q59.6,37.87,89.89,18.78c.54-.34,1.09-1,1.86-.05L29.12,58.25c4.4,2.89,8.67,5.71,13,8.49a1.15,1.15,0,0,0,1.05,0q11.22-7.7,22.4-15.47c.06,0,.08-.13.14-.25l-5.16-2.94c1.5-3,2.84-5.93,4.45-8.72a7.32,7.32,0,0,1,2.7-2.3q15.82-9.15,31.72-18.18a2.74,2.74,0,0,1,1.66-.15c.7.13,1.34.56,2,.67,1.73.28,2.35,1.31,2.43,2.95a13.29,13.29,0,0,0,.55,3.06,1.76,1.76,0,0,1-.9,2.26q-18,12-36,24.07c-.65.43-1.18.7-1.93.19a1.17,1.17,0,0,0-1,.1c-7.51,5.16-15,10.35-22.61,15.6.3.24.51.44.75.6,4.14,2.73,8.29,5.44,12.42,8.19a1,1,0,0,0,1.37,0q11.13-8.15,22.3-16.24a2.74,2.74,0,0,0,.25-.33c-.85-.49-1.68-1-2.53-1.46a.8.8,0,0,1-.42-1.24c1.31-2.83,2.48-5.72,3.87-8.51a6.16,6.16,0,0,1,2.15-2.33q15.87-10,31.82-19.9a2.08,2.08,0,0,1,1.51-.16,26.49,26.49,0,0,1,3.68,1.44,1.94,1.94,0,0,1,1,1.17c.4,1.91.73,3.85,1,5.79a1.62,1.62,0,0,1-.57,1.25q-18.19,13-36.43,26a1,1,0,0,1-1.49,0c-1.75-1.6-3.16-1.07-4.93.26C72.75,67.09,66.1,71.81,59.5,76.61l-1.14.86L73.82,87.63,96.56,69.57l-1.29-.93a8.52,8.52,0,0,1,.33-1C96.81,65,98,62.24,99.28,59.6A7.4,7.4,0,0,1,101.44,57Q117,45.85,132.68,34.87a2.07,2.07,0,0,1,1.6-.2,37.63,37.63,0,0,1,4.47,1.69,2,2,0,0,1,1,1.26c.33,1.93.54,3.88.71,5.83a1.55,1.55,0,0,1-.51,1.17q-17.85,14.09-35.72,28.14a1.25,1.25,0,0,1-1.68.12q-2.09-1.29-4.28-2.42a1.44,1.44,0,0,0-1.25,0Q85.93,79.21,74.92,88s0,.06-.13.22l2.33,1.56C78.63,90.79,78.85,91.49,78.24,93.5Z"/></g></g></svg>